{
  "accessors": [
    {
      "bufferView": 3,
      "componentType": 5126,
      "count": 3268,
      "max": [
        2.8936970233917236,
        2.1630825996398926,
        0.6629660725593567
      ],
      "min": [
        -3.6215767860412598,
        -2.258805990219116,
        -0.6629660725593567
      ],
      "type": "VEC3"
    },
    {
      "bufferView": 3,
      "byteOffset": 39216,
      "componentType": 5126,
      "count": 3268,
      "max": [
        0.7355490922927856,
        0.9156095385551453,
        1.0
      ],
      "min": [
        -0.976664125919342,
        -0.8289780616760254,
        -1.0
      ],
      "type": "VEC3"
    },
    {
      "bufferView": 2,
      "componentType": 5126,
      "count": 3268,
      "max": [
        0.975241482257843,
        0.9994562268257141
      ],
      "min": [
        0.0005439043161459267,
        0.000543896690942347
      ],
      "type": "VEC2"
    },
    {
      "bufferView": 1,
      "componentType": 5125,
      "count": 5235,
      "type": "SCALAR"
    },
    {
      "bufferView": 3,
      "byteOffset": 78432,
      "componentType": 5126,
      "count": 170,
      "max": [
        3.5531957149505615,
        -0.04569731652736664,
        0.26146891713142395
      ],
      "min": [
        3.1301612854003906,
        -0.49717584252357483,
        -0.26146891713142395
      ],
      "type": "VEC3"
    },
    {
      "bufferView": 3,
      "byteOffset": 80472,
      "componentType": 5126,
      "count": 170,
      "max": [
        0.9575461149215698,
        0.8066191673278809,
        0.9505795240402222
      ],
      "min": [
        0.26457294821739197,
        -0.5029773116111755,
        -0.9505795240402222
      ],
      "type": "VEC3"
    },
    {
      "bufferView": 2,
      "byteOffset": 26144,
      "componentType": 5126,
      "count": 170,
      "max": [
        0.2086869478225708,
        0.16752886772155762
      ],
      "min": [
        0.0005439042579382658,
        0.06699024885892868
      ],
      "type": "VEC2"
    },
    {
      "bufferView": 1,
      "byteOffset": 20940,
      "componentType": 5125,
      "count": 246,
      "type": "SCALAR"
    },
    {
      "bufferView": 3,
      "byteOffset": 82512,
      "componentType": 5126,
      "count": 580,
      "max": [
        3.426563262939453,
        1.2410959005355835,
        0.5178016424179077
      ],
      "min": [
        -3.6215767860412598,
        -1.1724560260772705,
        -0.5178016424179077
      ],
      "type": "VEC3"
    },
    {
      "bufferView": 3,
      "byteOffset": 89472,
      "componentType": 5126,
      "count": 580,
      "max": [
        0.664119303226471,
        0.9334263801574707,
        0.9972638487815857
      ],
      "min": [
        -0.677282989025116,
        -0.7631754279136658,
        -1.0
      ],
      "type": "VEC3"
    },
    {
      "bufferView": 2,
      "byteOffset": 27504,
      "componentType": 5126,
      "count": 580,
      "max": [
        0.985066294670105,
        0.9706065058708191
      ],
      "min": [
        0.000543906120583415,
        0.0005439031519927084
      ],
      "type": "VEC2"
    },
    {
      "bufferView": 1,
      "byteOffset": 21924,
      "componentType": 5125,
      "count": 984,
      "type": "SCALAR"
    },
    {
      "bufferView": 3,
      "byteOffset": 96432,
      "componentType": 5126,
      "count": 659,
      "max": [
        3.5380520820617676,
        1.2532167434692383,
        0.5178016424179077
      ],
      "min": [
        -3.0477309226989746,
        -1.1756784915924072,
        -0.45518141984939575
      ],
      "type": "VEC3"
    },
    {
      "bufferView": 3,
      "byteOffset": 104340,
      "componentType": 5126,
      "count": 659,
      "max": [
        0.8110544085502625,
        0.0067073022946715355,
        0.9999986886978149
      ],
      "min": [
        -0.4649726152420044,
        -0.9100708365440369,
        -0.9999986886978149
      ],
      "type": "VEC3"
    },
    {
      "bufferView": 2,
      "byteOffset": 32144,
      "componentType": 5126,
      "count": 659,
      "max": [
        0.9680256247520447,
        0.9646005630493164
      ],
      "min": [
        0.0,
        0.0
      ],
      "type": "VEC2"
    },
    {
      "bufferView": 1,
      "byteOffset": 25860,
      "componentType": 5125,
      "count": 1065,
      "type": "SCALAR"
    },
    {
      "bufferView": 3,
      "byteOffset": 112248,
      "componentType": 5126,
      "count": 64,
      "max": [
        2.326547861099243,
        0.30926164984703064,
        0.5178016424179077
      ],
      "min": [
        1.4465851783752441,
        -0.9399045705795288,
        -0.5178016424179077
      ],
      "type": "VEC3"
    },
    {
      "bufferView": 3,
      "byteOffset": 113016,
      "componentType": 5126,
      "count": 64,
      "max": [
        -0.20147724449634552,
        0.41630393266677856,
        0.8522699475288391
      ],
      "min": [
        -0.8608710765838623,
        -0.8809551000595093,
        -0.9203947186470032
      ],
      "type": "VEC3"
    },
    {
      "bufferView": 2,
      "byteOffset": 37416,
      "componentType": 5126,
      "count": 64,
      "max": [
        0.38679563999176025,
        0.3262607157230377
      ],
      "min": [
        0.09809787571430206,
        0.0005439048400148749
      ],
      "type": "VEC2"
    },
    {
      "bufferView": 1,
      "byteOffset": 30120,
      "componentType": 5125,
      "count": 96,
      "type": "SCALAR"
    },
    {
      "bufferView": 3,
      "byteOffset": 113784,
      "componentType": 5126,
      "count": 298,
      "max": [
        2.9041266441345215,
        2.1630825996398926,
        0.41344213485717773
      ],
      "min": [
        -0.9642102122306824,
        -0.1496637612581253,
        -0.41344213485717773
      ],
      "type": "VEC3"
    },
    {
      "bufferView": 3,
      "byteOffset": 117360,
      "componentType": 5126,
      "count": 298,
      "max": [
        0.27145302295684814,
        0.4547949731349945,
        0.9998928308486938
      ],
      "min": [
        -0.04226770997047424,
        0.011493983678519726,
        -0.9998927712440491
      ],
      "type": "VEC3"
    },
    {
      "bufferView": 2,
      "byteOffset": 37928,
      "componentType": 5126,
      "count": 298,
      "max": [
        0.7496483325958252,
        0.9364509582519531
      ],
      "min": [
        0.29364943504333496,
        0.13495951890945435
      ],
      "type": "VEC2"
    },
    {
      "bufferView": 1,
      "byteOffset": 30504,
      "componentType": 5125,
      "count": 414,
      "type": "SCALAR"
    },
    {
      "bufferView": 3,
      "byteOffset": 120936,
      "componentType": 5126,
      "count": 216,
      "max": [
        2.9809811115264893,
        1.268320083618164,
        0.43700331449508667
      ],
      "min": [
        -1.3054755926132202,
        -0.22752004861831665,
        -0.43700331449508667
      ],
      "type": "VEC3"
    },
    {
      "bufferView": 3,
      "byteOffset": 123528,
      "componentType": 5126,
      "count": 216,
      "max": [
        0.3930914103984833,
        0.9078342914581299,
        0.9835630059242249
      ],
      "min": [
        -0.35736361145973206,
        -0.5965146422386169,
        -0.9835630655288696
      ],
      "type": "VEC3"
    },
    {
      "bufferView": 2,
      "byteOffset": 40312,
      "componentType": 5126,
      "count": 216,
      "max": [
        0.6129055619239807,
        0.9425613880157471
      ],
      "min": [
        0.04577241092920303,
        0.7317532896995544
      ],
      "type": "VEC2"
    },
    {
      "bufferView": 1,
      "byteOffset": 32160,
      "componentType": 5125,
      "count": 384,
      "type": "SCALAR"
    },
    {
      "bufferView": 3,
      "byteOffset": 126120,
      "componentType": 5126,
      "count": 113,
      "max": [
        1.5386595726013184,
        2.1630825996398926,
        0.3086404502391815
      ],
      "min": [
        -1.5082722902297974,
        -1.1329307556152344,
        -0.018654318526387215
      ],
      "type": "VEC3"
    },
    {
      "bufferView": 3,
      "byteOffset": 127476,
      "componentType": 5126,
      "count": 113,
      "max": [
        0.22860382497310638,
        0.559510350227356,
        0.9983490705490112
      ],
      "min": [
        -0.046523358672857285,
        -0.6455893516540527,
        -1.0
      ],
      "type": "VEC3"
    },
    {
      "bufferView": 2,
      "byteOffset": 42040,
      "componentType": 5126,
      "count": 113,
      "max": [
        0.7580493688583374,
        0.8406010270118713
      ],
      "min": [
        0.0,
        0.0
      ],
      "type": "VEC2"
    },
    {
      "bufferView": 1,
      "byteOffset": 33696,
      "componentType": 5125,
      "count": 255,
      "type": "SCALAR"
    },
    {
      "bufferView": 5,
      "componentType": 5126,
      "count": 35,
      "max": [
        1.0000003576278687,
        0.999670147895813,
        0.49143296480178833,
        0.0,
        0.5225292444229126,
        1.0,
        0.9994049668312073,
        0.0,
        0.9996699690818787,
        0.9546216726303101,
        1.0,
        0.0,
        0.9183177351951599,
        1.421966314315796,
        1.2367777824401855,
        1.0
      ],
      "min": [
        -0.014247570186853409,
        -0.9997005462646484,
        -0.5982299447059631,
        0.0,
        -0.5982293486595154,
        -0.6753663420677185,
        -0.9546215534210205,
        0.0,
        -0.9997005462646484,
        -0.9546213746070862,
        -0.6753661036491394,
        0.0,
        -1.5718774795532227,
        -2.861584424972534,
        -1.598633050918579,
        1.0
      ],
      "type": "MAT4"
    },
    {
      "bufferView": 0,
      "componentType": 5123,
      "count": 3268,
      "type": "VEC4"
    },
    {
      "bufferView": 4,
      "componentType": 5126,
      "count": 3268,
      "max": [
        1.0,
        0.4763791859149933,
        0.3129858672618866,
        0.20468489825725555
      ],
      "min": [
        0.2974297106266022,
        0.0,
        0.0,
        0.0
      ],
      "type": "VEC4"
    },
    {
      "bufferView": 0,
      "byteOffset": 26144,
      "componentType": 5123,
      "count": 170,
      "type": "VEC4"
    },
    {
      "bufferView": 4,
      "byteOffset": 52288,
      "componentType": 5126,
      "count": 170,
      "max": [
        1.0,
        0.0,
        0.0,
        0.0
      ],
      "min": [
        1.0,
        0.0,
        0.0,
        0.0
      ],
      "type": "VEC4"
    },
    {
      "bufferView": 0,
      "byteOffset": 27504,
      "componentType": 5123,
      "count": 580,
      "type": "VEC4"
    },
    {
      "bufferView": 4,
      "byteOffset": 55008,
      "componentType": 5126,
      "count": 580,
      "max": [
        1.0,
        0.4763791859149933,
        0.26826992630958557,
        0.20468489825725555
      ],
      "min": [
        0.2974297106266022,
        0.0,
        0.0,
        0.0
      ],
      "type": "VEC4"
    },
    {
      "bufferView": 0,
      "byteOffset": 32144,
      "componentType": 5123,
      "count": 659,
      "type": "VEC4"
    },
    {
      "bufferView": 4,
      "byteOffset": 64288,
      "componentType": 5126,
      "count": 659,
      "max": [
        1.0,
        0.47891202569007874,
        0.29303479194641113,
        0.15564292669296265
      ],
      "min": [
        0.3255886435508728,
        0.0,
        0.0,
        0.0
      ],
      "type": "VEC4"
    },
    {
      "bufferView": 0,
      "byteOffset": 37416,
      "componentType": 5123,
      "count": 64,
      "type": "VEC4"
    },
    {
      "bufferView": 4,
      "byteOffset": 74832,
      "componentType": 5126,
      "count": 64,
      "max": [
        1.0,
        0.45029157400131226,
        0.22833037376403809,
        0.14837373793125153
      ],
      "min": [
        0.33785831928253174,
        0.0,
        0.0,
        0.0
      ],
      "type": "VEC4"
    },
    {
      "bufferView": 0,
      "byteOffset": 37928,
      "componentType": 5123,
      "count": 298,
      "type": "VEC4"
    },
    {
      "bufferView": 4,
      "byteOffset": 75856,
      "componentType": 5126,
      "count": 298,
      "max": [
        1.0,
        0.4541204869747162,
        0.26445987820625305,
        0.13420014083385468
      ],
      "min": [
        0.3370620906352997,
        0.0,
        0.0,
        0.0
      ],
      "type": "VEC4"
    },
    {
      "bufferView": 0,
      "byteOffset": 40312,
      "componentType": 5123,
      "count": 216,
      "type": "VEC4"
    },
    {
      "bufferView": 4,
      "byteOffset": 80624,
      "componentType": 5126,
      "count": 216,
      "max": [
        1.0,
        0.3290148973464966,
        0.26445987820625305,
        0.13420014083385468
      ],
      "min": [
        0.3370620906352997,
        0.0,
        0.0,
        0.0
      ],
      "type": "VEC4"
    },
    {
      "bufferView": 0,
      "byteOffset": 42040,
      "componentType": 5123,
      "count": 113,
      "type": "VEC4"
    },
    {
      "bufferView": 4,
      "byteOffset": 84080,
      "componentType": 5126,
      "count": 113,
      "max": [
        1.0,
        0.44786351919174194,
        0.2583649158477783,
        0.14491939544677734
      ],
      "min": [
        0.3255886435508728,
        0.0,
        0.0,
        0.0
      ],
      "type": "VEC4"
    },
    {
      "bufferView": 6,
      "componentType": 5126,
      "count": 81,
      "max": [
        2.6666667461395264
      ],
      "min": [
        0.0
      ],
      "type": "SCALAR"
    },
    {
      "bufferView": 8,
      "componentType": 5126,
      "count": 81,
      "max": [
        0.04629066213965416,
        -0.05740968883037567,
        -0.03411729633808136,
        0.9966931939125061
      ],
      "min": [
        0.04629066213965416,
        -0.05740968883037567,
        -0.03411729633808136,
        0.9966931939125061
      ],
      "type": "VEC4"
    },
    {
      "bufferView": 6,
      "byteOffset": 324,
      "componentType": 5126,
      "count": 81,
      "max": [
        2.6666667461395264
      ],
      "min": [
        0.0
      ],
      "type": "SCALAR"
    },
    {
      "bufferView": 8,
      "byteOffset": 1296,
      "componentType": 5126,
      "count": 81,
      "max": [
        0.01883821003139019,
        -0.022164110094308853,
        -0.011691146530210972,
        0.9995085000991821
      ],
      "min": [
        0.01883821003139019,
        -0.022164110094308853,
        -0.011691146530210972,
        0.9995085000991821
      ],
      "type": "VEC4"
    },
    {
      "bufferView": 6,
      "byteOffset": 648,
      "componentType": 5126,
      "count": 81,
      "max": [
        2.6666667461395264
      ],
      "min": [
        0.0
      ],
      "type": "SCALAR"
    },
    {
      "bufferView": 8,
      "byteOffset": 2592,
      "componentType": 5126,
      "count": 81,
      "max": [
        0.2080250382423401,
        -0.2133469581604004,
        -0.06728985160589218,
        0.9521978497505188
      ],
      "min": [
        0.2080250382423401,
        -0.2133469581604004,
        -0.06728985160589218,
        0.9521978497505188
      ],
      "type": "VEC4"
    },
    {
      "bufferView": 6,
      "byteOffset": 972,
      "componentType": 5126,
      "count": 81,
      "max": [
        2.6666667461395264
      ],
      "min": [
        0.0
      ],
      "type": "SCALAR"
    },
    {
      "bufferView": 8,
      "byteOffset": 3888,
      "componentType": 5126,
      "count": 81,
      "max": [
        0.057757195085287094,
        -0.06920576095581055,
        0.038426101207733154,
        0.9951874613761902
      ],
      "min": [
        0.057757195085287094,
        -0.06920576095581055,
        0.038426101207733154,
        0.9951874613761902
      ],
      "type": "VEC4"
    },
    {
      "bufferView": 6,
      "byteOffset": 1296,
      "componentType": 5126,
      "count": 81,
      "max": [
        2.6666667461395264
      ],
      "min": [
        0.0
      ],
      "type": "SCALAR"
    },
    {
      "bufferView": 8,
      "byteOffset": 5184,
      "componentType": 5126,
      "count": 81,
      "max": [
        -0.3513191342353821,
        0.34042322635650635,
        -0.101795494556427,
        0.866212785243988
      ],
      "min": [
        -0.3513191342353821,
        0.34042322635650635,
        -0.101795494556427,
        0.866212785243988
      ],
      "type": "VEC4"
    },
    {
      "bufferView": 6,
      "byteOffset": 1620,
      "componentType": 5126,
      "count": 35,
      "max": [
        2.6666667461395264
      ],
      "min": [
        0.0
      ],
      "type": "SCALAR"
    },
    {
      "bufferView": 7,
      "componentType": 5126,
      "count": 35,
      "max": [
        1.571607066708225e-09,
        1.087721824645996,
        5.587935447692871e-09
      ],
      "min": [
        1.571606622619015e-09,
        1.087721824645996,
        5.587935447692871e-09
      ],
      "type": "VEC3"
    },
    {
      "bufferView": 6,
      "byteOffset": 1760,
      "componentType": 5126,
      "count": 81,
      "max": [
        2.6666667461395264
      ],
      "min": [
        0.0
      ],
      "type": "SCALAR"
    },
    {
      "bufferView": 8,
      "byteOffset": 6480,
      "componentType": 5126,
      "count": 81,
      "max": [
        0.03391583263874054,
        -0.03395437076687813,
        -0.001984624657779932,
        0.9988457560539246
      ],
      "min": [
        0.03391583263874054,
        -0.03395437076687813,
        -0.001984624657779932,
        0.9988457560539246
      ],
      "type": "VEC4"
    },
    {
      "bufferView": 6,
      "byteOffset": 2084,
      "componentType": 5126,
      "count": 129,
      "max": [
        2.6666667461395264
      ],
      "min": [
        0.0
      ],
      "type": "SCALAR"
    },
    {
      "bufferView": 8,
      "byteOffset": 7776,
      "componentType": 5126,
      "count": 129,
      "max": [
        0.3405037820339203,
        -0.30755871534347534,
        -0.08571932464838028,
        0.8938319087028503
      ],
      "min": [
        0.30609622597694397,
        -0.3166543245315552,
        -0.12212274223566055,
        0.87686687707901
      ],
      "type": "VEC4"
    },
    {
      "bufferView": 6,
      "byteOffset": 2600,
      "componentType": 5126,
      "count": 129,
      "max": [
        2.6666667461395264
      ],
      "min": [
        0.0
      ],
      "type": "SCALAR"
    },
    {
      "bufferView": 8,
      "byteOffset": 9840,
      "componentType": 5126,
      "count": 129,
      "max": [
        -0.11561805754899979,
        0.2880776524543762,
        0.017809607088565826,
        0.9682273864746094
      ],
      "min": [
        -0.20203424990177155,
        0.2210225909948349,
        -0.1537489891052246,
        0.9329147934913635
      ],
      "type": "VEC4"
    },
    {
      "bufferView": 6,
      "byteOffset": 3116,
      "componentType": 5126,
      "count": 81,
      "max": [
        2.6666667461395264
      ],
      "min": [
        0.0
      ],
      "type": "SCALAR"
    },
    {
      "bufferView": 8,
      "byteOffset": 11904,
      "componentType": 5126,
      "count": 81,
      "max": [
        -0.03547774255275726,
        0.03551922366023064,
        0.0021318013314157724,
        0.9987367987632751
      ],
      "min": [
        -0.03547774255275726,
        0.03551922366023064,
        0.0021318013314157724,
        0.9987367987632751
      ],
      "type": "VEC4"
    },
    {
      "bufferView": 6,
      "byteOffset": 3440,
      "componentType": 5126,
      "count": 129,
      "max": [
        2.6666667461395264
      ],
      "min": [
        0.0
      ],
      "type": "SCALAR"
    },
    {
      "bufferView": 8,
      "byteOffset": 13200,
      "componentType": 5126,
      "count": 129,
      "max": [
        0.031467024236917496,
        0.08841622620820999,
        0.9973052144050598,
        0.17721542716026306
      ],
      "min": [
        0.02187497168779373,
        0.06801330298185349,
        0.9797053933143616,
        -0.1694946140050888
      ],
      "type": "VEC4"
    },
    {
      "bufferView": 6,
      "byteOffset": 3956,
      "componentType": 5126,
      "count": 129,
      "max": [
        2.6666667461395264
      ],
      "min": [
        0.0
      ],
      "type": "SCALAR"
    },
    {
      "bufferView": 8,
      "byteOffset": 15264,
      "componentType": 5126,
      "count": 129,
      "max": [
        -0.058356255292892456,
        -0.05672149360179901,
        0.023287661373615265,
        0.9965981245040894
      ],
      "min": [
        -0.0622304268181324,
        -0.060658153146505356,
        -0.00975272711366415,
        0.9959471225738525
      ],
      "type": "VEC4"
    },
    {
      "bufferView": 6,
      "byteOffset": 4472,
      "componentType": 5126,
      "count": 129,
      "max": [
        2.6666667461395264
      ],
      "min": [
        0.0
      ],
      "type": "SCALAR"
    },
    {
      "bufferView": 8,
      "byteOffset": 17328,
      "componentType": 5126,
      "count": 129,
      "max": [
        -0.04243221879005432,
        -0.0422932505607605,
        0.009547680616378784,
        0.998197078704834
      ],
      "min": [
        -0.0433395579457283,
        -0.0427081398665905,
        -0.0081638153642416,
        0.9981038570404053
      ],
      "type": "VEC4"
    },
    {
      "bufferView": 6,
      "byteOffset": 4988,
      "componentType": 5126,
      "count": 104,
      "max": [
        2.6666667461395264
      ],
      "min": [
        0.0
      ],
      "type": "SCALAR"
    },
    {
      "bufferView": 8,
      "byteOffset": 19392,
      "componentType": 5126,
      "count": 104,
      "max": [
        -0.6585580110549927,
        0.7392226457595825,
        0.03707079589366913,
        -0.1388203203678131
      ],
      "min": [
        -0.6802582740783691,
        0.7010719180107117,
        -0.024087008088827133,
        -0.21064801514148712
      ],
      "type": "VEC4"
    },
    {
      "bufferView": 6,
      "byteOffset": 5404,
      "componentType": 5126,
      "count": 77,
      "max": [
        2.6666667461395264
      ],
      "min": [
        0.0
      ],
      "type": "SCALAR"
    },
    {
      "bufferView": 8,
      "byteOffset": 21056,
      "componentType": 5126,
      "count": 77,
      "max": [
        -0.12447267025709152,
        -0.10647615790367126,
        0.6988081336021423,
        0.6963021159172058
      ],
      "min": [
        -0.12447267025709152,
        -0.10647615790367126,
        0.6988081336021423,
        0.6963021159172058
      ],
      "type": "VEC4"
    },
    {
      "bufferView": 6,
      "byteOffset": 5712,
      "componentType": 5126,
      "count": 105,
      "max": [
        2.6666667461395264
      ],
      "min": [
        0.0
      ],
      "type": "SCALAR"
    },
    {
      "bufferView": 8,
      "byteOffset": 22288,
      "componentType": 5126,
      "count": 105,
      "max": [
        0.024087117984890938,
        -0.13882046937942505,
        0.680062472820282,
        0.7392227053642273
      ],
      "min": [
        -0.037321124225854874,
        -0.21066255867481232,
        0.6585578918457031,
        0.7015514969825745
      ],
      "type": "VEC4"
    },
    {
      "bufferView": 6,
      "byteOffset": 6132,
      "componentType": 5126,
      "count": 16,
      "max": [
        2.6666667461395264
      ],
      "min": [
        0.0
      ],
      "type": "SCALAR"
    },
    {
      "bufferView": 8,
      "byteOffset": 23968,
      "componentType": 5126,
      "count": 16,
      "max": [
        0.7017755508422852,
        0.6988081336021423,
        -0.10647614300251007,
        -0.08854995667934418
      ],
      "min": [
        0.7017755508422852,
        0.6988081336021423,
        -0.10647614300251007,
        -0.08854995667934418
      ],
      "type": "VEC4"
    },
    {
      "bufferView": 6,
      "byteOffset": 6196,
      "componentType": 5126,
      "count": 129,
      "max": [
        2.6666667461395264
      ],
      "min": [
        0.0
      ],
      "type": "SCALAR"
    },
    {
      "bufferView": 8,
      "byteOffset": 24224,
      "componentType": 5126,
      "count": 129,
      "max": [
        0.035326071083545685,
        0.03392331302165985,
        0.02686302177608013,
        0.9988618493080139
      ],
      "min": [
        0.03344888985157013,
        0.03349323198199272,
        -0.027454441413283348,
        0.9984517693519592
      ],
      "type": "VEC4"
    },
    {
      "bufferView": 6,
      "byteOffset": 6712,
      "componentType": 5126,
      "count": 129,
      "max": [
        2.6666667461395264
      ],
      "min": [
        0.0
      ],
      "type": "SCALAR"
    },
    {
      "bufferView": 8,
      "byteOffset": 26288,
      "componentType": 5126,
      "count": 129,
      "max": [
        -0.047660455107688904,
        0.11340396851301193,
        0.06187652051448822,
        0.9922358989715576
      ],
      "min": [
        -0.09865537285804749,
        0.10936009883880615,
        0.02585637755692005,
        0.9877877235412598
      ],
      "type": "VEC4"
    },
    {
      "bufferView": 6,
      "byteOffset": 7228,
      "componentType": 5126,
      "count": 104,
      "max": [
        2.6666667461395264
      ],
      "min": [
        0.0
      ],
      "type": "SCALAR"
    },
    {
      "bufferView": 8,
      "byteOffset": 28352,
      "componentType": 5126,
      "count": 104,
      "max": [
        -0.3737097680568695,
        -0.26756250858306885,
        0.8678759336471558,
        0.28391772508621216
      ],
      "min": [
        -0.3988093137741089,
        -0.2785803973674774,
        0.8262777328491211,
        0.1882195919752121
      ],
      "type": "VEC4"
    },
    {
      "bufferView": 6,
      "byteOffset": 7644,
      "componentType": 5126,
      "count": 62,
      "max": [
        2.6666667461395264
      ],
      "min": [
        0.0
      ],
      "type": "SCALAR"
    },
    {
      "bufferView": 8,
      "byteOffset": 30016,
      "componentType": 5126,
      "count": 62,
      "max": [
        -0.4055130183696747,
        -0.27848127484321594,
        0.8668125867843628,
        0.007804534863680601
      ],
      "min": [
        -0.4302579164505005,
        -0.32766321301460266,
        0.8411085605621338,
        -0.08150624483823776
      ],
      "type": "VEC4"
    }
  ],
  "animations": [
    {
      "channels": [
        {
          "sampler": 0,
          "target": {
            "node": 23,
            "path": "rotation"
          }
        },
        {
          "sampler": 1,
          "target": {
            "node": 22,
            "path": "rotation"
          }
        },
        {
          "sampler": 2,
          "target": {
            "node": 21,
            "path": "rotation"
          }
        },
        {
          "sampler": 3,
          "target": {
            "node": 26,
            "path": "rotation"
          }
        },
        {
          "sampler": 4,
          "target": {
            "node": 25,
            "path": "rotation"
          }
        },
        {
          "sampler": 5,
          "target": {
            "node": 20,
            "path": "translation"
          }
        },
        {
          "sampler": 6,
          "target": {
            "node": 20,
            "path": "rotation"
          }
        },
        {
          "sampler": 7,
          "target": {
            "node": 28,
            "path": "rotation"
          }
        },
        {
          "sampler": 8,
          "target": {
            "node": 30,
            "path": "rotation"
          }
        },
        {
          "sampler": 9,
          "target": {
            "node": 19,
            "path": "rotation"
          }
        },
        {
          "sampler": 10,
          "target": {
            "node": 18,
            "path": "rotation"
          }
        },
        {
          "sampler": 11,
          "target": {
            "node": 36,
            "path": "rotation"
          }
        },
        {
          "sampler": 12,
          "target": {
            "node": 35,
            "path": "rotation"
          }
        },
        {
          "sampler": 13,
          "target": {
            "node": 39,
            "path": "rotation"
          }
        },
        {
          "sampler": 14,
          "target": {
            "node": 38,
            "path": "rotation"
          }
        },
        {
          "sampler": 15,
          "target": {
            "node": 42,
            "path": "rotation"
          }
        },
        {
          "sampler": 16,
          "target": {
            "node": 41,
            "path": "rotation"
          }
        },
        {
          "sampler": 17,
          "target": {
            "node": 34,
            "path": "rotation"
          }
        },
        {
          "sampler": 18,
          "target": {
            "node": 45,
            "path": "rotation"
          }
        },
        {
          "sampler": 19,
          "target": {
            "node": 47,
            "path": "rotation"
          }
        },
        {
          "sampler": 20,
          "target": {
            "node": 49,
            "path": "rotation"
          }
        }
      ],
      "name": "metarig|Berenang Santai",
      "samplers": [
        {
          "input": 49,
          "interpolation": "LINEAR",
          "output": 50
        },
        {
          "input": 51,
          "interpolation": "LINEAR",
          "output": 52
        },
        {
          "input": 53,
          "interpolation": "LINEAR",
          "output": 54
        },
        {
          "input": 55,
          "interpolation": "LINEAR",
          "output": 56
        },
        {
          "input": 57,
          "interpolation": "LINEAR",
          "output": 58
        },
        {
          "input": 59,
          "interpolation": "LINEAR",
          "output": 60
        },
        {
          "input": 61,
          "interpolation": "LINEAR",
          "output": 62
        },
        {
          "input": 63,
          "interpolation": "LINEAR",
          "output": 64
        },
        {
          "input": 65,
          "interpolation": "LINEAR",
          "output": 66
        },
        {
          "input": 67,
          "interpolation": "LINEAR",
          "output": 68
        },
        {
          "input": 69,
          "interpolation": "LINEAR",
          "output": 70
        },
        {
          "input": 71,
          "interpolation": "LINEAR",
          "output": 72
        },
        {
          "input": 73,
          "interpolation": "LINEAR",
          "output": 74
        },
        {
          "input": 75,
          "interpolation": "LINEAR",
          "output": 76
        },
        {
          "input": 77,
          "interpolation": "LINEAR",
          "output": 78
        },
        {
          "input": 79,
          "interpolation": "LINEAR",
          "output": 80
        },
        {
          "input": 81,
          "interpolation": "LINEAR",
          "output": 82
        },
        {
          "input": 83,
          "interpolation": "LINEAR",
          "output": 84
        },
        {
          "input": 85,
          "interpolation": "LINEAR",
          "output": 86
        },
        {
          "input": 87,
          "interpolation": "LINEAR",
          "output": 88
        },
        {
          "input": 89,
          "interpolation": "LINEAR",
          "output": 90
        }
      ]
    }
  ],
  "asset": {
    "extras": {
      "author": "Rio2 (https://sketchfab.com/Rio2)",
      "license": "SKETCHFAB Standard (https://sketchfab.com/licenses)",
      "source": "https://sketchfab.com/3d-models/nila-ikan-8f37da95927a496e87b6cbd43a2ed85b",
      "title": "Nila Ikan"
    },
    "generator": "Sketchfab-16.45.0",
    "version": "2.0"
  },
  "bufferViews": [
    {
      "buffer": 0,
      "byteLength": 42944,
      "byteStride": 8,
      "name": "shortBufferViews",
      "target": 34962
    },
    {
      "buffer": 0,
      "byteLength": 34716,
      "byteOffset": 42944,
      "name": "floatBufferViews",
      "target": 34963
    },
    {
      "buffer": 0,
      "byteLength": 42944,
      "byteOffset": 77660,
      "byteStride": 8,
      "name": "floatBufferViews",
      "target": 34962
    },
    {
      "buffer": 0,
      "byteLength": 128832,
      "byteOffset": 120604,
      "byteStride": 12,
      "name": "floatBufferViews",
      "target": 34962
    },
    {
      "buffer": 0,
      "byteLength": 85888,
      "byteOffset": 249436,
      "byteStride": 16,
      "name": "floatBufferViews",
      "target": 34962
    },
    {
      "buffer": 0,
      "byteLength": 2240,
      "byteOffset": 335324,
      "name": "floatBufferViews"
    },
    {
      "buffer": 0,
      "byteLength": 7892,
      "byteOffset": 337564,
      "name": "floatBufferViews"
    },
    {
      "buffer": 0,
      "byteLength": 420,
      "byteOffset": 345456,
      "byteStride": 12,
      "name": "floatBufferViews"
    },
    {
      "buffer": 0,
      "byteLength": 31008,
      "byteOffset": 345876,
      "byteStride": 16,
      "name": "floatBufferViews"
    }
  ],
  "buffers": [
    {
      "byteLength": 376884,
      "uri": "scene.bin"
    }
  ],
  "extensionsUsed": [
    "KHR_materials_unlit"
  ],
  "materials": [
    {
      "doubleSided": true,
      "extensions": {
        "KHR_materials_unlit": {}
      },
      "name": "Mata_Tengah",
      "pbrMetallicRoughness": {
        "baseColorFactor": [
          0.0,
          0.0,
          0.0,
          1.0
        ],
        "metallicFactor": 0.0
      }
    },
    {
      "doubleSided": true,
      "extensions": {
        "KHR_materials_unlit": {}
      },
      "name": "Mulut",
      "pbrMetallicRoughness": {
        "baseColorFactor": [
          0.350552,
          0.346317,
          0.344215,
          1.0
        ],
        "metallicFactor": 0.0
      }
    },
    {
      "doubleSided": true,
      "extensions": {
        "KHR_materials_unlit": {}
      },
      "name": "Warna_Belang_Atas",
      "pbrMetallicRoughness": {
        "baseColorFactor": [
          0.517329,
          0.517329,
          0.517329,
          1.0
        ],
        "metallicFactor": 0.0
      }
    },
    {
      "doubleSided": true,
      "extensions": {
        "KHR_materials_unlit": {}
      },
      "name": "Belang_Putih",
      "pbrMetallicRoughness": {
        "baseColorFactor": [
          0.8,
          0.8,
          0.8,
          1.0
        ],
        "metallicFactor": 0.0
      }
    },
    {
      "doubleSided": true,
      "extensions": {
        "KHR_materials_unlit": {}
      },
      "name": "Insang_Dalam",
      "pbrMetallicRoughness": {
        "baseColorFactor": [
          0.266758,
          0.266758,
          0.266758,
          1.0
        ],
        "metallicFactor": 0.0
      }
    },
    {
      "doubleSided": true,
      "extensions": {
        "KHR_materials_unlit": {}
      },
      "name": "Mata_Garis_Kuning",
      "pbrMetallicRoughness": {
        "baseColorFactor": [
          0.8,
          0.711641,
          0.239763,
          1.0
        ],
        "metallicFactor": 0.0
      }
    },
    {
      "doubleSided": true,
      "extensions": {
        "KHR_materials_unlit": {}
      },
      "name": "Mata_Luar",
      "pbrMetallicRoughness": {
        "baseColorFactor": [
          0.8,
          0.685186,
          0.216317,
          1.0
        ],
        "metallicFactor": 0.0
      }
    },
    {
      "doubleSided": true,
      "extensions": {
        "KHR_materials_unlit": {}
      },
      "name": "N_Nila_MataTengah",
      "pbrMetallicRoughness": {
        "baseColorFactor": [
          0.8,
          0.8,
          0.8,
          1.0
        ],
        "metallicFactor": 0.0
      }
    }
  ],
  "meshes": [
    {
      "name": "Cube_Mata Tengah_0",
      "primitives": [
        {
          "attributes": {
            "JOINTS_0": 33,
            "NORMAL": 1,
            "POSITION": 0,
            "TEXCOORD_0": 2,
            "WEIGHTS_0": 34
          },
          "indices": 3,
          "material": 0,
          "mode": 4
        }
      ]
    },
    {
      "name": "Cube_Mulut_0",
      "primitives": [
        {
          "attributes": {
            "JOINTS_0": 35,
            "NORMAL": 5,
            "POSITION": 4,
            "TEXCOORD_0": 6,
            "WEIGHTS_0": 36
          },
          "indices": 7,
          "material": 1,
          "mode": 4
        }
      ]
    },
    {
      "name": "Cube_Warna Belang Atas_0",
      "primitives": [
        {
          "attributes": {
            "JOINTS_0": 37,
            "NORMAL": 9,
            "POSITION": 8,
            "TEXCOORD_0": 10,
            "WEIGHTS_0": 38
          },
          "indices": 11,
          "material": 2,
          "mode": 4
        }
      ]
    },
    {
      "name": "Cube_Belang Putih_0",
      "primitives": [
        {
          "attributes": {
            "JOINTS_0": 39,
            "NORMAL": 13,
            "POSITION": 12,
            "TEXCOORD_0": 14,
            "WEIGHTS_0": 40
          },
          "indices": 15,
          "material": 3,
          "mode": 4
        }
      ]
    },
    {
      "name": "Cube_Insang Dalam_0",
      "primitives": [
        {
          "attributes": {
            "JOINTS_0": 41,
            "NORMAL": 17,
            "POSITION": 16,
            "TEXCOORD_0": 18,
            "WEIGHTS_0": 42
          },
          "indices": 19,
          "material": 4,
          "mode": 4
        }
      ]
    },
    {
      "name": "Cube_Mata Garis Kuning_0",
      "primitives": [
        {
          "attributes": {
            "JOINTS_0": 43,
            "NORMAL": 21,
            "POSITION": 20,
            "TEXCOORD_0": 22,
            "WEIGHTS_0": 44
          },
          "indices": 23,
          "material": 5,
          "mode": 4
        }
      ]
    },
    {
      "name": "Cube_Mata Luar_0",
      "primitives": [
        {
          "attributes": {
            "JOINTS_0": 45,
            "NORMAL": 25,
            "POSITION": 24,
            "TEXCOORD_0": 26,
            "WEIGHTS_0": 46
          },
          "indices": 27,
          "material": 6,
          "mode": 4
        }
      ]
    },
    {
      "name": "Cube_N_Nila_MataTengah_0",
      "primitives": [
        {
          "attributes": {
            "JOINTS_0": 47,
            "NORMAL": 29,
            "POSITION": 28,
            "TEXCOORD_0": 30,
            "WEIGHTS_0": 48
          },
          "indices": 31,
          "material": 7,
          "mode": 4
        }
      ]
    }
  ],
  "nodes": [
    {
      "children": [
        1
      ],
      "matrix": [
        1.0,
        0.0,
        0.0,
        0.0,
        0.0,
        2.220446049250313e-16,
        -1.0,
        0.0,
        0.0,
        1.0,
        2.220446049250313e-16,
        0.0,
        0.0,
        0.0,
        0.0,
        1.0
      ],
      "name": "Sketchfab_model"
    },
    {
      "children": [
        2
      ],
      "matrix": [
        1.0,
        0.0,
        0.0,
        0.0,
        0.0,
        0.0,
        1.0,
        0.0,
        0.0,
        -1.0,
        0.0,
        0.0,
        0.0,
        0.0,
        0.0,
        1.0
      ],
      "name": "b912f72773e448c89d62e326db65882c.fbx"
    },
    {
      "children": [
        3
      ],
      "name": "Object_2"
    },
    {
      "children": [
        4,
        5
      ],
      "name": "RootNode"
    },
    {
      "name": "Cube"
    },
    {
      "children": [
        6
      ],
      "name": "metarig",
      "rotation": [
        -0.7071068286895752,
        0.0,
        0.0,
        0.7071067094802856
      ]
    },
    {
      "children": [
        7,
        9,
        10,
        11,
        12,
        13,
        14,
        15,
        16,
        8
      ],
      "name": "Object_6"
    },
    {
      "children": [
        17
      ],
      "name": "_rootJoint"
    },
    {
      "matrix": [
        1.0000000205999302,
        -2.193361978153341e-09,
        -3.032680183367997e-11,
        0.0,
        2.1933619386192713e-09,
        1.000000002616116,
        -2.9365457912544635e-09,
        0.0,
        3.03268082704824e-11,
        2.936545843600709e-09,
        1.0000000204645567,
        0.0,
        3.698920347794399e-08,
        2.0565848329878733e-09,
        1.3751104335074649e-10,
        1.0
      ],
      "name": "Object_8"
    },
    {
      "mesh": 0,
      "name": "Object_9",
      "skin": 0
    },
    {
      "mesh": 1,
      "name": "Object_10",
      "skin": 0
    },
    {
      "mesh": 2,
      "name": "Object_11",
      "skin": 0
    },
    {
      "mesh": 3,
      "name": "Object_12",
      "skin": 0
    },
    {
      "mesh": 4,
      "name": "Object_13",
      "skin": 0
    },
    {
      "mesh": 5,
      "name": "Object_14",
      "skin": 0
    },
    {
      "mesh": 6,
      "name": "Object_15",
      "skin": 0
    },
    {
      "mesh": 7,
      "name": "Object_16",
      "skin": 0
    },
    {
      "children": [
        18,
        32
      ],
      "name": "spine.003_01",
      "rotation": [
        0.02926838956773281,
        1.2667034088309492e-09,
        -0.7065008282661438,
        0.7071068286895752
      ],
      "translation": [
        -0.4692874550819397,
        -2.0513205356564868e-08,
        -0.07877582311630249
      ]
    },
    {
      "children": [
        19
      ],
      "name": "spine.002_02",
      "rotation": [
        0.02187497727572918,
        0.07916577905416489,
        0.9821027517318726,
        -0.16949456930160522
      ],
      "scale": [
        0.9999991655349731,
        0.9999996423721313,
        0.9999957084655762
      ],
      "translation": [
        2.9756819230897236e-10,
        -2.7008354663848877e-08,
        6.437013144733328e-09
      ]
    },
    {
      "children": [
        20,
        28,
        30
      ],
      "name": "spine.001_03",
      "rotation": [
        -0.03547774255275726,
        0.03551922366023064,
        0.0021318013314157724,
        0.9987367987632751
      ],
      "translation": [
        2.0489096641540527e-08,
        0.3134223222732544,
        -1.7229467630386353e-08
      ]
    },
    {
      "children": [
        21,
        25
      ],
      "name": "spine_04",
      "rotation": [
        0.03391583636403084,
        -0.033954374492168427,
        -0.001984624657779932,
        0.9988458752632141
      ],
      "scale": [
        0.9999998807907104,
        1.0,
        1.0
      ],
      "translation": [
        1.57160684466362e-09,
        1.087721824645996,
        5.587935447692871e-09
      ]
    },
    {
      "children": [
        22
      ],
      "name": "back_fin.T.Bk_05",
      "rotation": [
        0.2080250382423401,
        -0.2133469581604004,
        -0.06728985905647278,
        0.9521978497505188
      ],
      "scale": [
        1.0,
        1.0,
        0.9999998807907104
      ],
      "translation": [
        0.008794206194579601,
        0.2584047317504883,
        0.09487280994653702
      ]
    },
    {
      "children": [
        23
      ],
      "name": "back_fin.T.001.Bk_06",
      "rotation": [
        0.01883821003139019,
        -0.022164110094308853,
        -0.011691145598888397,
        0.9995085000991821
      ],
      "scale": [
        0.9999999403953552,
        0.9999999403953552,
        0.9999998807907104
      ],
      "translation": [
        1.4901161193847656e-08,
        0.5575329065322876,
        4.470348358154297e-08
      ]
    },
    {
      "children": [
        24
      ],
      "name": "back_fin.T.002.Bk_07",
      "rotation": [
        0.04629066213965416,
        -0.05740968883037567,
        -0.03411729633808136,
        0.9966931939125061
      ],
      "scale": [
        1.0,
        1.0000001192092896,
        1.0
      ],
      "translation": [
        -1.1175870895385742e-08,
        0.6244012713432312,
        -2.9802322387695313e-08
      ]
    },
    {
      "name": "back_fin.T.002.Bk_end_025",
      "rotation": [
        1.3877787807814457e-17,
        -2.7755575615628914e-17,
        2.7755575615628914e-17,
        1.0
      ],
      "translation": [
        0.0,
        0.3491874635219574,
        -2.220446049250313e-16
      ]
    },
    {
      "children": [
        26
      ],
      "name": "back_fin.B.Bk_08",
      "rotation": [
        -0.3513191342353821,
        0.34042322635650635,
        -0.1017954871058464,
        0.866212785243988
      ],
      "scale": [
        1.0,
        1.0000001192092896,
        1.0
      ],
      "translation": [
        -0.0070485458709299564,
        0.21346347033977509,
        -0.07604078948497772
      ]
    },
    {
      "children": [
        27
      ],
      "name": "back_fin.B.001.Bk_09",
      "rotation": [
        0.057757195085287094,
        -0.06920576095581055,
        0.038426101207733154,
        0.9951874613761902
      ],
      "scale": [
        0.9999999403953552,
        0.9999998807907104,
        1.0
      ],
      "translation": [
        -8.940696716308594e-08,
        0.7417465448379517,
        -2.9802322387695313e-08
      ]
    },
    {
      "name": "back_fin.B.001.Bk_end_00",
      "rotation": [
        1.3877787807814457e-17,
        -5.551115123125783e-17,
        -5.551115123125783e-17,
        1.0
      ],
      "translation": [
        0.0,
        0.8488704562187195,
        2.220446049250313e-16
      ]
    },
    {
      "children": [
        29
      ],
      "name": "mid_fin.Top_010",
      "rotation": [
        0.3405038118362427,
        -0.31665435433387756,
        -0.12203137576580048,
        0.8768669962882996
      ],
      "scale": [
        1.0,
        0.9999997019767761,
        0.9999992251396179
      ],
      "translation": [
        0.01402521412819624,
        -0.07738292217254639,
        0.5730651021003723
      ]
    },
    {
      "name": "mid_fin.Top_end_026",
      "rotation": [
        -2.7755575615628914e-17,
        -2.7755575615628914e-17,
        6.938893903907228e-17,
        1.0
      ],
      "translation": [
        4.163336342344337e-17,
        1.0804377794265747,
        3.0531133177191805e-16
      ]
    },
    {
      "children": [
        31
      ],
      "name": "mid_fin.Bot_011",
      "rotation": [
        -0.15179739892482758,
        0.2880776524543762,
        -0.1537489891052246,
        0.9329147934913635
      ],
      "scale": [
        0.9999993443489075,
        0.999999463558197,
        0.999999463558197
      ],
      "translation": [
        -0.01840994879603386,
        0.08190824091434479,
        -0.7522241473197937
      ]
    },
    {
      "name": "mid_fin.Bot_end_027",
      "rotation": [
        4.163336342344337e-17,
        0.0,
        0.0,
        1.0
      ],
      "translation": [
        2.7755575615628914e-17,
        0.7868156433105469,
        1.1102230246251565e-16
      ]
    },
    {
      "children": [
        33,
        47,
        49
      ],
      "name": "spine.008_012",
      "rotation": [
        0.039006032049655914,
        0.03910293057560921,
        0.003148610470816493,
        0.9984686374664307
      ],
      "scale": [
        1.0000001192092896,
        1.0000001192092896,
        0.9999998807907104
      ],
      "translation": [
        3.2057601018209425e-10,
        0.4472534954547882,
        -3.6689426496927524e-10
      ]
    },
    {
      "children": [
        34,
        44
      ],
      "name": "spine.004_013",
      "rotation": [
        -0.08059011399745941,
        -0.08038852363824844,
        -0.0031406076159328222,
        0.9934954643249512
      ],
      "scale": [
        1.0,
        0.9999999403953552,
        1.0
      ],
      "translation": [
        1.651621062137565e-10,
        0.5066857933998108,
        1.2527410220286583e-09
      ]
    },
    {
      "children": [
        35,
        38,
        41
      ],
      "name": "spine.005_014",
      "rotation": [
        0.033504143357276917,
        0.03392330929636955,
        -0.027454441413283348,
        0.9984853267669678
      ],
      "scale": [
        0.9999993443489075,
        0.9999995827674866,
        0.999998927116394
      ],
      "translation": [
        -2.646771690706373e-12,
        0.3967777490615845,
        -2.0628756480789434e-09
      ]
    },
    {
      "children": [
        36
      ],
      "name": "spine.006_015",
      "rotation": [
        -0.04263649135828018,
        -0.04230571165680885,
        -0.00816381722688675,
        0.998161256313324
      ],
      "scale": [
        0.9999982714653015,
        0.9999997615814209,
        0.9999988675117493
      ],
      "translation": [
        -6.257323548197746e-10,
        0.9053956270217896,
        -8.149072527885437e-10
      ]
    },
    {
      "children": [
        37
      ],
      "name": "spine.007_016",
      "rotation": [
        -0.0603860504925251,
        -0.05672150105237961,
        -0.0097527289763093,
        0.9965145587921143
      ],
      "scale": [
        0.9999998211860657,
        0.9999992847442627,
        1.0
      ],
      "translation": [
        1.8975697457790375e-08,
        0.5244830846786499,
        -2.3283064365386963e-09
      ]
    },
    {
      "name": "spine.007_end_028",
      "rotation": [
        1.214306433183765e-17,
        1.3877787807814457e-17,
        6.938893903907228e-18,
        1.0
      ],
      "translation": [
        2.7755575615628914e-17,
        1.2485319375991821,
        1.1102230246251565e-16
      ]
    },
    {
      "children": [
        39
      ],
      "name": "shoulder.L_017",
      "rotation": [
        -0.12447268515825272,
        -0.10647612810134888,
        0.6988080739974976,
        0.6963021755218506
      ],
      "scale": [
        1.0,
        0.9999999403953552,
        0.9999999403953552
      ],
      "translation": [
        -0.09815667569637299,
        0.6857061386108398,
        -0.365453839302063
      ]
    },
    {
      "children": [
        40
      ],
      "name": "side_fin.L_018",
      "rotation": [
        -0.6802582740783691,
        0.7010719180107117,
        0.037070829421281815,
        -0.2106480598449707
      ],
      "scale": [
        0.9999995827674866,
        0.9999993443489075,
        0.9999998211860657
      ],
      "translation": [
        -0.20031048357486725,
        0.34642940759658813,
        -0.20419065654277802
      ]
    },
    {
      "name": "side_fin.L_end_029",
      "rotation": [
        -4.85722573273506e-17,
        2.7755575615628914e-17,
        1.3481509610710651e-33,
        1.0
      ],
      "translation": [
        2.220446049250313e-16,
        1.5575141906738281,
        1.6653345369377348e-16
      ]
    },
    {
      "children": [
        42
      ],
      "name": "shoulder.R_019",
      "rotation": [
        0.7017756104469299,
        0.6988080739974976,
        -0.10647618025541306,
        -0.08854999393224716
      ],
      "scale": [
        0.9999998807907104,
        0.9999996423721313,
        1.0
      ],
      "translation": [
        0.11680098623037338,
        0.6857061386108398,
        -0.35992884635925293
      ]
    },
    {
      "children": [
        43
      ],
      "name": "side_fin.R_020",
      "rotation": [
        0.024087123572826385,
        -0.13882046937942505,
        0.6585579514503479,
        0.7392226457595825
      ],
      "scale": [
        0.9999985098838806,
        0.999999463558197,
        0.9999998807907104
      ],
      "translation": [
        -0.20031066238880157,
        0.34642937779426575,
        0.20419064164161682
      ]
    },
    {
      "name": "side_fin.R_end_030",
      "rotation": [
        3.469446951953614e-18,
        -5.551115123125783e-17,
        1.925929944387236e-34,
        1.0
      ],
      "translation": [
        0.0,
        1.5575140714645386,
        2.7755575615628914e-17
      ]
    },
    {
      "children": [
        45
      ],
      "name": "top_fin_021",
      "rotation": [
        0.29258039593696594,
        0.253919780254364,
        0.9193055033683777,
        0.06927405297756195
      ],
      "scale": [
        0.9999998807907104,
        1.0,
        1.0000004768371582
      ],
      "translation": [
        0.07631886750459671,
        0.721129834651947,
        1.2217375040054321
      ]
    },
    {
      "children": [
        46
      ],
      "name": "top_fin.001_022",
      "rotation": [
        -0.05167703703045845,
        0.1101309135556221,
        0.02585638500750065,
        0.9922360181808472
      ],
      "scale": [
        0.9999986290931702,
        1.0,
        1.0
      ],
      "translation": [
        7.450580596923828e-08,
        0.6478204131126404,
        1.1548399925231934e-07
      ]
    },
    {
      "name": "top_fin.001_end_031",
      "rotation": [
        -6.3102717108249e-17,
        -1.5947064930522243e-33,
        2.5271598558246474e-17,
        1.0
      ],
      "translation": [
        -1.1102230246251565e-16,
        1.2107592821121216,
        0.0
      ]
    },
    {
      "children": [
        48
      ],
      "name": "chest_fin.Bot.L_023",
      "rotation": [
        -0.3738649785518646,
        -0.26756253838539124,
        0.8678759336471558,
        0.1882195770740509
      ],
      "scale": [
        0.9999992251396179,
        0.9999991655349731,
        1.0
      ],
      "translation": [
        0.12548623979091644,
        1.0311198234558105,
        -1.2858165502548218
      ]
    },
    {
      "name": "chest_fin.Bot.L_end_032",
      "rotation": [
        9.71445146547012e-17,
        2.7755575615628914e-17,
        4.163336342344337e-17,
        1.0
      ],
      "translation": [
        0.0,
        1.4613322019577026,
        -2.220446049250313e-16
      ]
    },
    {
      "children": [
        50
      ],
      "name": "chest_fin.Bot.R_024",
      "rotation": [
        -0.4055130183696747,
        -0.27848124504089355,
        0.8668126463890076,
        -0.08150617778301239
      ],
      "scale": [
        1.0,
        0.9999999403953552,
        0.999999463558197
      ],
      "translation": [
        0.18295793235301971,
        1.0311198234558105,
        -1.278904914855957
      ]
    },
    {
      "name": "chest_fin.Bot.R_end_033",
      "rotation": [
        -6.162975822039155e-33,
        -1.1102230246251565e-16,
        -5.551115123125783e-17,
        1.0
      ],
      "translation": [
        0.0,
        1.461332082748413,
        0.0
      ]
    }
  ],
  "scene": 0,
  "scenes": [
    {
      "name": "Sketchfab_Scene",
      "nodes": [
        0
      ]
    }
  ],
  "skins": [
    {
      "inverseBindMatrices": 32,
      "joints": [
        7,
        17,
        18,
        19,
        20,
        21,
        22,
        23,
        24,
        25,
        26,
        27,
        28,
        29,
        30,
        31,
        32,
        33,
        34,
        35,
        36,
        37,
        38,
        39,
        40,
        41,
        42,
        43,
        44,
        45,
        46,
        47,
        48,
        49,
        50
      ],
      "skeleton": 7
    }
  ]
}
